<svg version="1" xmlns="http://www.w3.org/2000/svg" width="400" height="400" viewBox="0 0 300.000000 300.000000"><path d="M0 150v150h300V0H0v150zm240.2-73.9c7.4 1.6 17.6 7 22.2 11.7l3.9 4-3 6.5c-2 4-3.8 6.6-5.1 6.9-1.3.4-4.3-1-9.1-4.2-11.1-7.6-20.1-9.5-30.5-6.5-10.8 3.2-17.6 12.2-17.6 23.4 0 13.2 6 18.8 29.8 28.1 21.4 8.3 29 13.9 34.5 25 2.9 5.9 3.2 7.5 3.6 17.8.3 9.9 0 12.2-2.3 19.6-5.2 16.7-16.4 27.9-31.6 31.7-9.2 2.2-24.2 1.6-32.6-1.3-8.3-2.9-16.1-7.9-22.1-14l-4.3-4.4 2.6-4.9c5.4-10.2 7-10.6 15.9-3.5 9.2 7.3 16.4 10.4 25.5 10.8 9.3.5 16.7-2 22.4-7.5 5.8-5.7 8-11.2 8.1-20.8 0-7-.4-8.6-2.8-12.7-3.5-6-8.7-9.5-20.7-14.2-24.9-9.7-31.1-13.1-36.3-20.4-4.8-6.9-6.6-11.4-7.8-19.9-3.2-23.2 9.8-45.3 29.9-50.8 5.9-1.7 20.5-1.8 27.4-.4zm-185 36.1l.3 36.3 38.8.3 38.7.2V75.9l9.8.3 9.7.3.3 81.7.2 81.8h-20v-36.9c0-32.7-.2-37-1.6-37.5-2.8-1.1-72.4-.7-74.5.4-1.8 1-1.9 2.5-1.9 37.5V240H36V76h19l.2 36.2z"/></svg>