<svg version="1" xmlns="http://www.w3.org/2000/svg" width="412" height="412" viewBox="0 0 309.000000 309.000000"><path d="M227.2 79.2c-12.3 1.9-26.3 11.1-33.1 21.7-5.1 7.8-6.2 12.5-6.2 24.6.1 10.5.2 11.3 3.6 18.2 6.1 12.3 15.4 18.5 41.5 27.3 26.7 9.1 31.1 13.1 31.3 27.9 0 8.7-2 13.7-7.8 19.6-5.3 5.2-9.6 6.7-21 7.1-14.2.6-18.5-.6-30.7-8.2-10.4-6.5-13-7.3-15.9-5.1-2.7 2.1-8.8 11.9-8.2 13.3.7 1.8 10.8 9.4 17.6 13.2 8.7 5 17.1 7.3 28.7 7.9 19.3 1 35.1-4 46.1-14.7 7.1-6.9 11.3-15.3 13.5-26.5 1.5-7.3 1.6-10 .6-17.1-2.5-19.1-11.5-26.9-44.6-38.8-7-2.6-14.7-5.6-17-6.6-9.8-4.6-15.5-12.2-15.6-20.6 0-8.2 7.2-17.9 16-21.7 3.7-1.5 19.4-1.7 24.9-.2 2.7.7 7.9 3 11.7 5.2 8.8 5.1 9.9 5.4 12.8 4.3 2.3-.8 8.6-10.9 8.6-13.6 0-1.6-8.8-8.3-14.5-11.2-11.3-5.6-28.7-8.1-42.3-6zM21 162.5V245h24v-35.8c0-26.5.3-36.1 1.2-37 .9-.9 11.8-1.2 43-1.2H131v74h24.9l-.2-82-.2-82-3-.1c-9.6-.2-19.8.1-20.3.6-.5.4-.7 14.6-1.1 61.8l-.1 9.7-42.7-.2c-33.4-.2-42.8-.6-42.9-1.6-.1-.6-.2-17-.3-36.2L45 80H21v82.5z"/></svg>