<?xml version="1.0" standalone="no"?>
<!DOCTYPE svg PUBLIC "-//W3C//DTD SVG 20010904//EN"
 "http://www.w3.org/TR/2001/REC-SVG-20010904/DTD/svg10.dtd">
<svg version="1.0" xmlns="http://www.w3.org/2000/svg"
 width="640.000000pt" height="640.000000pt" viewBox="0 0 640.000000 640.000000"
 preserveAspectRatio="xMidYMid meet">
<metadata>
Created by potrace 1.11, written by Peter Selinger 2001-2013
</metadata>
<g transform="translate(0.000000,640.000000) scale(0.100000,-0.100000)"
fill="#000000" stroke="none">
<path d="M625 6385 c-240 -45 -432 -191 -540 -410 -88 -177 -80 105 -80 -2775
0 -2880 -8 -2598 80 -2775 80 -162 187 -268 350 -346 169 -81 -101 -74 2765
-74 l2555 0 79 23 c219 63 384 199 481 397 88 177 80 -105 80 2775 l0 2555
-23 79 c-76 264 -266 455 -532 538 l-75 23 -2535 2 c-2067 1 -2548 -1 -2605
-12z m2219 -548 c77 -35 140 -98 179 -176 29 -60 32 -74 32 -161 0 -82 -4
-103 -26 -150 -54 -113 -149 -186 -274 -210 -154 -30 -316 53 -387 198 -31 62
-33 74 -33 167 0 90 3 105 28 153 53 101 135 170 236 199 68 19 179 10 245
-20z m2232 -639 l-22 -198 395 -262 c281 -188 402 -274 422 -301 119 -163 -3
-399 -205 -399 -34 0 -72 2 -83 6 -18 6 -23 0 -38 -46 -70 -218 -277 -394
-513 -435 -80 -15 -107 -15 -189 -5 -53 7 -97 11 -98 10 -2 -2 -126 -253 -276
-558 l-274 -555 -5 -825 c-5 -821 -5 -825 -27 -865 -28 -52 -68 -89 -123 -114
-114 -52 -251 -1 -313 114 -22 40 -22 41 -25 873 l-2 832 -616 -2 -616 -3
-108 -185 c-83 -143 -106 -189 -100 -205 4 -11 114 -273 244 -582 212 -506
236 -568 236 -618 0 -138 -102 -239 -240 -239 -78 0 -133 25 -180 81 -21 26
-119 245 -301 672 l-269 633 -2 198 -3 198 -118 -185 -117 -185 0 -605 c0
-446 -3 -617 -12 -647 -16 -55 -99 -138 -154 -154 -97 -29 -203 2 -264 76 -60
73 -60 69 -60 823 l0 687 100 156 100 156 0 532 0 533 -95 -145 -95 -145 0
-447 0 -448 -195 0 -195 0 0 478 c0 531 2 551 66 672 47 91 140 182 229 226
126 62 145 64 797 64 l587 0 3 453 3 452 29 62 c34 74 113 154 183 185 73 33
201 36 276 8 110 -41 198 -136 228 -245 6 -22 14 -82 18 -134 l6 -95 285 -73
c160 -41 296 -81 310 -91 111 -82 98 -248 -24 -303 -23 -10 -55 -19 -72 -19
-17 0 -136 25 -264 55 -128 30 -235 55 -237 55 -1 0 -3 -70 -3 -155 l0 -155
273 0 272 0 744 770 c409 424 745 769 746 768 2 -2 -7 -92 -19 -200z"/>
<path d="M4923 3926 c-128 -255 -128 -236 2 -236 144 0 251 46 361 155 67 66
114 141 129 206 l6 25 -173 33 c-95 18 -182 34 -193 37 -17 4 -35 -25 -132
-220z"/>
</g>
</svg>
