<?xml version="1.0" standalone="no"?>
<!DOCTYPE svg PUBLIC "-//W3C//DTD SVG 20010904//EN"
 "http://www.w3.org/TR/2001/REC-SVG-20010904/DTD/svg10.dtd">
<svg version="1.0" xmlns="http://www.w3.org/2000/svg"
 width="640.000000pt" height="640.000000pt" viewBox="0 0 640.000000 640.000000"
 preserveAspectRatio="xMidYMid meet">
<metadata>
Created by potrace 1.11, written by Peter Selinger 2001-2013
</metadata>
<g transform="translate(0.000000,640.000000) scale(0.100000,-0.100000)"
fill="#000000" stroke="none">
<path d="M665 6389 c-164 -19 -311 -93 -436 -218 -132 -133 -200 -274 -220
-461 -6 -62 -9 -949 -7 -2580 4 -2807 -5 -2521 85 -2710 40 -82 58 -107 142
-190 82 -82 110 -103 191 -142 188 -91 -98 -82 2710 -86 1648 -2 2517 1 2581
7 109 12 227 50 316 102 82 48 222 190 267 270 50 92 84 197 96 299 13 117 13
4925 0 5042 -12 100 -51 221 -101 305 -44 75 -187 218 -262 262 -84 50 -205
89 -305 101 -107 12 -4954 11 -5057 -1z m2186 -552 c67 -32 152 -118 180 -182
84 -189 1 -405 -189 -493 -48 -23 -71 -27 -147 -27 -82 0 -97 3 -157 33 -84
41 -158 120 -189 200 -44 116 -23 264 52 358 42 53 122 111 177 129 75 24 204
15 273 -18z m2249 -444 c0 -5 -9 -84 -20 -178 -11 -93 -20 -180 -20 -193 0
-18 66 -66 378 -273 207 -138 390 -263 406 -278 16 -14 39 -48 52 -76 89 -189
-87 -405 -292 -357 l-42 9 -12 -41 c-44 -150 -181 -310 -327 -384 -138 -68
-242 -82 -452 -60 -23 3 -43 -33 -302 -562 l-278 -565 -1 -810 c0 -762 -2
-812 -19 -850 -41 -90 -126 -145 -226 -145 -70 0 -126 23 -173 70 -72 71 -67
3 -70 933 l-2 837 -613 0 -613 0 -107 -183 c-59 -101 -107 -189 -107 -194 0
-6 104 -257 231 -559 127 -302 238 -571 247 -599 44 -145 -81 -305 -238 -305
-76 0 -164 46 -201 106 -10 17 -137 308 -281 645 l-263 614 -5 209 -5 210
-117 -186 -118 -185 -2 -625 -3 -625 -30 -49 c-43 -68 -108 -107 -190 -112
-35 -2 -80 1 -100 8 -53 17 -114 76 -141 135 l-24 50 0 705 0 705 100 155 100
155 0 524 c0 294 -4 521 -9 515 -4 -5 -47 -69 -94 -142 l-87 -133 -2 -447 -3
-447 -192 -3 -193 -2 0 493 c0 541 1 555 61 667 62 117 167 208 299 260 l65
25 627 3 627 3 3 457 3 457 29 59 c138 281 529 280 668 -1 28 -58 32 -76 36
-174 l5 -109 36 -9 c408 -105 545 -143 565 -158 49 -37 71 -82 71 -148 0 -52
-4 -67 -29 -99 -40 -53 -82 -76 -138 -76 -26 0 -125 18 -220 41 -95 22 -199
46 -230 54 l-58 13 0 -154 0 -154 273 1 272 0 740 769 c407 422 743 769 748
769 4 1 7 -2 7 -6z"/>
<path d="M4927 3925 l-112 -223 35 -6 c204 -34 438 87 528 274 52 109 61 99
-129 135 -92 18 -176 35 -188 38 -19 5 -33 -17 -134 -218z"/>
</g>
</svg>